# File created by Blade
# Date/Time:  Wed Jan 21 17:05:57 2015
# Frame Rate: 120.000 fps
#------------------------------------------------------
:FULLY-SPECIFIED
:DEGREES
410
root 19.333095 8.649758 -14.049234 -182.927157 5.248740 -182.003440
Spine 74.822993 7.188068 -3.345719
Head -11.252916 -0.736740 4.349944
LeftShoulder 22.118496 -62.650561 22.689428
LeftArm 55.017487 10.974994 -11.188827
LeftForeArm 6.841555 -0.000000 -1.780018
LeftHand -5.407355 0.000000 17.234604
LeftHandThumb1 -26.253704 0.000000 33.147579
RightShoulder 10.457669 25.356470 -34.068853
RightArm 54.128765 33.349943 19.998464
RightForeArm -30.192880 -0.000000 8.650235
RightHand -10.513185 -0.000000 -10.027250
RightHandThumb1 -24.326973 -0.000000 -32.862282
LeftUpLeg -113.834912 32.175757 -7.045843
LeftLeg 149.116311 -0.000000 -0.000000
LeftFoot -52.404779 17.935228 -11.439873
LeftToeBase 27.210673 -0.000000 -0.000000
RightUpLeg -117.138939 -19.843734 4.358499
RightLeg 147.800862 -0.000000 -0.000000
RightFoot -49.594061 -23.327216 15.085909
RightToeBase 25.263089 -0.000000 -0.000000
411
root 19.349139 8.684916 -14.081867 -183.063995 5.235104 -182.251214
Spine 74.588426 7.268201 -3.613040
Head -11.160142 -0.572013 4.296852
LeftShoulder 21.953840 -62.295167 22.845532
LeftArm 55.112652 10.979084 -10.736989
LeftForeArm 6.844503 -0.000000 -1.785499
LeftHand -5.103650 -0.000000 16.995007
LeftHandThumb1 -26.253704 0.000000 33.147579
RightShoulder 10.502458 25.144320 -33.989645
RightArm 54.120699 33.338449 19.808577
RightForeArm -30.145116 -0.000000 8.607088
RightHand -10.607893 0.000000 -9.885878
RightHandThumb1 -24.326973 -0.000000 -32.862282
LeftUpLeg -113.215135 32.271460 -7.000787
LeftLeg 148.996439 -0.000000 -0.000000
LeftFoot -52.664544 17.851845 -11.471211
LeftToeBase 27.255677 -0.000000 -0.000000
RightUpLeg -116.864001 -19.962680 4.159594
RightLeg 147.831257 -0.000000 -0.000000
RightFoot -49.805528 -23.272944 15.132501
RightToeBase 25.652928 -0.000000 -0.000000
412
root 19.370614 8.706335 -14.108689 -183.058371 5.290149 -182.403306
Spine 74.148369 7.390814 -3.741598
Head -11.058072 -0.615652 4.306804
LeftShoulder 21.840800 -62.142338 22.898103
LeftArm 55.190450 11.116106 -10.579724
LeftForeArm 7.098064 -0.000000 -1.788650
LeftHand -4.996454 -0.000000 16.766019
LeftHandThumb1 -26.253704 0.000000 33.147579
RightShoulder 10.467746 24.899088 -33.919246
RightArm 54.264261 33.300434 19.773566
RightForeArm -30.247281 0.000000 8.556784
RightHand -10.674055 -0.000000 -9.791630
RightHandThumb1 -24.326973 -0.000000 -32.862282
LeftUpLeg -112.785058 32.405531 -6.900916
LeftLeg 148.899449 -0.000000 -0.000000
LeftFoot -52.989412 17.857742 -11.403351
LeftToeBase 27.437032 -0.000000 -0.000000
RightUpLeg -116.712586 -19.921352 4.094563
RightLeg 147.837738 -0.000000 -0.000000
RightFoot -50.050803 -23.439600 15.051550
RightToeBase 25.734223 -0.000000 -0.000000
413
root 19.385457 8.723439 -14.138230 -183.041684 5.288319 -182.623207
Spine 73.649418 7.430196 -4.019436
Head -10.925828 -0.570452 4.271100
LeftShoulder 21.584835 -61.686418 23.068990
LeftArm 55.331570 11.018215 -10.239181
LeftForeArm 7.011284 -0.000000 -1.841837
LeftHand -5.017421 -0.000000 16.570585
LeftHandThumb1 -26.253704 0.000000 33.147579
RightShoulder 10.488946 24.704008 -33.870659
RightArm 54.498951 33.285793 19.889750
RightForeArm -30.514097 -0.000000 8.408906
RightHand -10.577409 -0.000000 -9.663820
RightHandThumb1 -24.326973 -0.000000 -32.862282
LeftUpLeg -112.432810 32.462664 -6.936149
LeftLeg 148.813292 -0.000000 -0.000000
LeftFoot -53.291179 17.900000 -11.359637
LeftToeBase 27.735709 -0.000000 -0.000000
RightUpLeg -116.618263 -19.959406 3.938950
RightLeg 147.872293 -0.000000 -0.000000
RightFoot -50.286962 -23.552414 14.982268
RightToeBase 25.519052 -0.000000 -0.000000
414
root 19.406033 8.750026 -14.167409 -183.020239 5.270485 -182.769085
Spine 73.178922 7.525278 -4.063393
Head -10.807470 -0.661369 4.361085
LeftShoulder 21.794703 -61.822295 22.927873
LeftArm 55.196008 10.985734 -10.829069
LeftForeArm 7.739927 0.000000 -2.007407
LeftHand -4.855107 -0.000000 16.745424
LeftHandThumb1 -26.253704 0.000000 33.147579
RightShoulder 10.448138 24.113644 -33.781186
RightArm 54.503741 33.387140 19.458293
RightForeArm -30.617786 -0.000000 8.341531
RightHand -10.608966 -0.000000 -9.429844
RightHandThumb1 -24.326973 -0.000000 -32.862282
LeftUpLeg -112.016786 32.484895 -6.859836
LeftLeg 148.699532 -0.000000 -0.000000
LeftFoot -53.607277 17.898679 -11.392095
LeftToeBase 27.876244 -0.000000 -0.000000
RightUpLeg -116.438551 -19.981934 3.856735
RightLeg 147.875510 -0.000000 -0.000000
RightFoot -50.574851 -23.688688 14.945806
RightToeBase 25.560669 -0.000000 -0.000000
415
root 19.421766 8.775290 -14.187964 -182.930724 5.219926 -182.957386
Spine 72.616426 7.511139 -4.286434
Head -10.724083 -0.597003 4.356601
LeftShoulder 21.524966 -61.353654 23.059500
LeftArm 55.432991 10.926743 -10.346872
LeftForeArm 7.732673 -0.000000 -2.031747
LeftHand -5.233656 -0.000000 16.360057
LeftHandThumb1 -26.253704 0.000000 33.147579
RightShoulder 10.410192 23.965377 -33.758749
RightArm 54.804604 33.322975 19.651935
RightForeArm -31.234678 -0.000000 8.128858
RightHand -10.452628 -0.000000 -9.296619
RightHandThumb1 -24.326973 -0.000000 -32.862282
LeftUpLeg -111.683395 32.423055 -6.894594
LeftLeg 148.561406 -0.000000 -0.000000
LeftFoot -53.917832 18.018433 -11.341179
LeftToeBase 27.947528 -0.000000 -0.000000
RightUpLeg -116.318243 -19.997740 3.715202
RightLeg 147.848634 -0.000000 -0.000000
RightFoot -50.877742 -23.947396 14.870279
RightToeBase 25.688606 -0.000000 -0.000000
416
root 19.443540 8.822074 -14.208208 -182.889480 5.177784 -183.096090
Spine 72.198566 7.522005 -4.408678
Head -10.788192 -0.583665 4.386211
LeftShoulder 21.366552 -61.222547 23.155903
LeftArm 55.464332 10.843985 -10.396346
LeftForeArm 8.032216 0.000000 -2.122869
LeftHand -5.008565 -0.000000 16.647381
LeftHandThumb1 -26.253704 0.000000 33.147579
RightShoulder 10.348596 23.488328 -33.721047
RightArm 54.908636 33.419866 19.255486
RightForeArm -31.459584 0.000000 7.965468
RightHand -10.429356 -0.000000 -8.976493
RightHandThumb1 -24.326973 -0.000000 -32.862282
LeftUpLeg -111.230950 32.377018 -6.843628
LeftLeg 148.374573 -0.000000 -0.000000
LeftFoot -54.229786 18.082632 -11.393700
LeftToeBase 28.090155 -0.000000 -0.000000
RightUpLeg -116.095418 -19.993072 3.667047
RightLeg 147.783318 -0.000000 -0.000000
RightFoot -51.175154 -24.111517 14.959772
RightToeBase 25.710777 -0.000000 -0.000000
417
root 19.461947 8.858869 -14.220594 -182.705716 5.120032 -183.214768
Spine 71.560850 7.520128 -4.459390
Head -10.696201 -0.633706 4.417273
LeftShoulder 21.362098 -61.074378 23.123867
LeftArm 55.501651 10.714485 -10.557903
LeftForeArm 8.305739 -0.000000 -2.217994
LeftHand -5.058086 0.000000 16.909235
LeftHandThumb1 -26.253704 0.000000 33.147579
RightShoulder 10.313655 22.823666 -33.674235
RightArm 54.864004 33.522125 18.669011
RightForeArm -31.614849 -0.000000 7.909599
RightHand -10.440684 -0.000000 -8.695503
RightHandThumb1 -24.326973 -0.000000 -32.862282
LeftUpLeg -111.007990 32.240516 -6.878611
LeftLeg 148.208613 -0.000000 -0.000000
LeftFoot -54.470237 18.151191 -11.474950
LeftToeBase 27.924484 -0.000000 -0.000000
RightUpLeg -116.008776 -19.959006 3.617298
RightLeg 147.703173 -0.000000 -0.000000
RightFoot -51.502265 -24.361556 14.994187
RightToeBase 25.929447 -0.000000 -0.000000
418
root 19.483780 8.934905 -14.230968 -182.629829 5.034078 -183.316242
Spine 71.207366 7.505310 -4.459213
Head -10.866128 -0.722888 4.494686
LeftShoulder 21.334819 -61.169865 23.134479
LeftArm 55.454634 10.645293 -10.767752
LeftForeArm 8.695466 -0.000000 -2.306658
LeftHand -5.005145 -0.000000 17.046838
LeftHandThumb1 -26.253704 0.000000 33.147579
RightShoulder 10.104823 22.509410 -33.700994
RightArm 55.083144 33.605115 18.584329
RightForeArm -32.141397 -0.000000 7.701060
RightHand -10.297958 -0.000000 -8.523103
RightHandThumb1 -24.326973 -0.000000 -32.862282
LeftUpLeg -110.513734 32.111780 -6.812324
LeftLeg 147.923097 -0.000000 -0.000000
LeftFoot -54.775350 18.303415 -11.496536
LeftToeBase 28.213424 -0.000000 -0.000000
RightUpLeg -115.647461 -19.943645 3.558493
RightLeg 147.536525 -0.000000 -0.000000
RightFoot -51.875746 -24.501734 15.212170
RightToeBase 25.824301 -0.000000 -0.000000
419
root 19.502306 9.007130 -14.229471 -182.445044 4.943230 -183.455216
Spine 70.678274 7.426339 -4.664001
Head -10.962444 -0.662545 4.546341
LeftShoulder 20.973839 -60.689304 23.378668
LeftArm 55.677430 10.544777 -10.106225
LeftForeArm 8.177776 -0.000000 -2.297466
LeftHand -4.965822 -0.000000 16.988793
LeftHandThumb1 -26.253704 0.000000 33.147579
RightShoulder 10.068689 22.125387 -33.669014
RightArm 55.171557 33.636362 18.191633
RightForeArm -32.590494 -0.000000 7.452693
RightHand -10.235682 0.000000 -8.573783
RightHandThumb1 -24.326973 -0.000000 -32.862282
LeftUpLeg -110.188209 31.888131 -6.881354
LeftLeg 147.621811 -0.000000 -0.000000
LeftFoot -54.998630 18.425034 -11.631528
LeftToeBase 28.088472 -0.000000 -0.000000
RightUpLeg -115.423158 -19.896571 3.462025
RightLeg 147.341732 -0.000000 -0.000000
RightFoot -52.212388 -24.747959 15.323849
RightToeBase 25.765473 -0.000000 -0.000000
420
root 19.524546 9.109420 -14.231836 -182.370540 4.895983 -183.570206
Spine 70.374535 7.442748 -4.739536
Head -11.183286 -0.689123 4.671949
LeftShoulder 20.792806 -60.596913 23.507691
LeftArm 55.790726 10.590298 -9.682668
LeftForeArm 8.162722 0.000000 -2.315499
LeftHand -5.031890 0.000000 16.883059
LeftHandThumb1 -26.253704 0.000000 33.147579
RightShoulder 9.943439 21.703929 -33.617602
RightArm 55.169570 33.767741 17.663139
RightForeArm -32.508852 -0.000000 7.339984
RightHand -10.233996 -0.000000 -8.400143
RightHandThumb1 -24.326973 -0.000000 -32.862282
LeftUpLeg -109.682174 31.788931 -6.867190
LeftLeg 147.261973 -0.000000 -0.000000
LeftFoot -55.195030 18.490030 -11.780379
LeftToeBase 28.272718 -0.000000 -0.000000
RightUpLeg -114.960529 -19.811580 3.352516
RightLeg 147.085882 -0.000000 -0.000000
RightFoot -52.567776 -24.881118 15.578385
RightToeBase 25.859358 -0.000000 -0.000000
